<svg xmlns="http://www.w3.org/2000/svg" xmlns:xlink="http://www.w3.org/1999/xlink" width="1516" height="683" viewBox="0 0 1516 683">
  <defs>
    <clipPath id="clip-path">
      <rect width="1516" height="683" fill="none"/>
    </clipPath>
  </defs>
  <g id="Group_41088" data-name="Group 41088" transform="translate(2709 11228)">
    <g id="Repeat_Grid_10" data-name="Repeat Grid 10" transform="translate(-2709 -11228)" clip-path="url(#clip-path)">
      <g transform="translate(-139 -84)">
        <circle id="Ellipse_55" data-name="Ellipse 55" cx="2" cy="2" r="2" transform="translate(139 84)" fill="#fff"/>
      </g>
      <g transform="translate(-55 -84)">
        <circle id="Ellipse_55-2" data-name="Ellipse 55" cx="2" cy="2" r="2" transform="translate(139 84)" fill="#fff"/>
      </g>
      <g transform="translate(29 -84)">
        <circle id="Ellipse_55-3" data-name="Ellipse 55" cx="2" cy="2" r="2" transform="translate(139 84)" fill="#fff"/>
      </g>
      <g transform="translate(113 -84)">
        <circle id="Ellipse_55-4" data-name="Ellipse 55" cx="2" cy="2" r="2" transform="translate(139 84)" fill="#fff"/>
      </g>
      <g transform="translate(197 -84)">
        <circle id="Ellipse_55-5" data-name="Ellipse 55" cx="2" cy="2" r="2" transform="translate(139 84)" fill="#fff"/>
      </g>
      <g transform="translate(281 -84)">
        <circle id="Ellipse_55-6" data-name="Ellipse 55" cx="2" cy="2" r="2" transform="translate(139 84)" fill="#fff"/>
      </g>
      <g transform="translate(365 -84)">
        <circle id="Ellipse_55-7" data-name="Ellipse 55" cx="2" cy="2" r="2" transform="translate(139 84)" fill="#fff"/>
      </g>
      <g transform="translate(449 -84)">
        <circle id="Ellipse_55-8" data-name="Ellipse 55" cx="2" cy="2" r="2" transform="translate(139 84)" fill="#fff"/>
      </g>
      <g transform="translate(533 -84)">
        <circle id="Ellipse_55-9" data-name="Ellipse 55" cx="2" cy="2" r="2" transform="translate(139 84)" fill="#fff"/>
      </g>
      <g transform="translate(617 -84)">
        <circle id="Ellipse_55-10" data-name="Ellipse 55" cx="2" cy="2" r="2" transform="translate(139 84)" fill="#fff"/>
      </g>
      <g transform="translate(701 -84)">
        <circle id="Ellipse_55-11" data-name="Ellipse 55" cx="2" cy="2" r="2" transform="translate(139 84)" fill="#fff"/>
      </g>
      <g transform="translate(785 -84)">
        <circle id="Ellipse_55-12" data-name="Ellipse 55" cx="2" cy="2" r="2" transform="translate(139 84)" fill="#fff"/>
      </g>
      <g transform="translate(869 -84)">
        <circle id="Ellipse_55-13" data-name="Ellipse 55" cx="2" cy="2" r="2" transform="translate(139 84)" fill="#fff"/>
      </g>
      <g transform="translate(953 -84)">
        <circle id="Ellipse_55-14" data-name="Ellipse 55" cx="2" cy="2" r="2" transform="translate(139 84)" fill="#fff"/>
      </g>
      <g transform="translate(1037 -84)">
        <circle id="Ellipse_55-15" data-name="Ellipse 55" cx="2" cy="2" r="2" transform="translate(139 84)" fill="#fff"/>
      </g>
      <g transform="translate(1121 -84)">
        <circle id="Ellipse_55-16" data-name="Ellipse 55" cx="2" cy="2" r="2" transform="translate(139 84)" fill="#fff"/>
      </g>
      <g transform="translate(1205 -84)">
        <circle id="Ellipse_55-17" data-name="Ellipse 55" cx="2" cy="2" r="2" transform="translate(139 84)" fill="#fff"/>
      </g>
      <g transform="translate(1289 -84)">
        <circle id="Ellipse_55-18" data-name="Ellipse 55" cx="2" cy="2" r="2" transform="translate(139 84)" fill="#fff"/>
      </g>
      <g transform="translate(1373 -84)">
        <circle id="Ellipse_55-19" data-name="Ellipse 55" cx="2" cy="2" r="2" transform="translate(139 84)" fill="#fff"/>
      </g>
      <g transform="translate(-139)">
        <circle id="Ellipse_55-20" data-name="Ellipse 55" cx="2" cy="2" r="2" transform="translate(139 84)" fill="#fff"/>
      </g>
      <g transform="translate(-55)">
        <circle id="Ellipse_55-21" data-name="Ellipse 55" cx="2" cy="2" r="2" transform="translate(139 84)" fill="#fff"/>
      </g>
      <g transform="translate(29)">
        <circle id="Ellipse_55-22" data-name="Ellipse 55" cx="2" cy="2" r="2" transform="translate(139 84)" fill="#fff"/>
      </g>
      <g transform="translate(113)">
        <circle id="Ellipse_55-23" data-name="Ellipse 55" cx="2" cy="2" r="2" transform="translate(139 84)" fill="#fff"/>
      </g>
      <g transform="translate(197)">
        <circle id="Ellipse_55-24" data-name="Ellipse 55" cx="2" cy="2" r="2" transform="translate(139 84)" fill="#fff"/>
      </g>
      <g transform="translate(281)">
        <circle id="Ellipse_55-25" data-name="Ellipse 55" cx="2" cy="2" r="2" transform="translate(139 84)" fill="#fff"/>
      </g>
      <g transform="translate(365)">
        <circle id="Ellipse_55-26" data-name="Ellipse 55" cx="2" cy="2" r="2" transform="translate(139 84)" fill="#fff"/>
      </g>
      <g transform="translate(449)">
        <circle id="Ellipse_55-27" data-name="Ellipse 55" cx="2" cy="2" r="2" transform="translate(139 84)" fill="#fff"/>
      </g>
      <g transform="translate(533)">
        <circle id="Ellipse_55-28" data-name="Ellipse 55" cx="2" cy="2" r="2" transform="translate(139 84)" fill="#fff"/>
      </g>
      <g transform="translate(617)">
        <circle id="Ellipse_55-29" data-name="Ellipse 55" cx="2" cy="2" r="2" transform="translate(139 84)" fill="#fff"/>
      </g>
      <g transform="translate(701)">
        <circle id="Ellipse_55-30" data-name="Ellipse 55" cx="2" cy="2" r="2" transform="translate(139 84)" fill="#fff"/>
      </g>
      <g transform="translate(785)">
        <circle id="Ellipse_55-31" data-name="Ellipse 55" cx="2" cy="2" r="2" transform="translate(139 84)" fill="#fff"/>
      </g>
      <g transform="translate(869)">
        <circle id="Ellipse_55-32" data-name="Ellipse 55" cx="2" cy="2" r="2" transform="translate(139 84)" fill="#fff"/>
      </g>
      <g transform="translate(953)">
        <circle id="Ellipse_55-33" data-name="Ellipse 55" cx="2" cy="2" r="2" transform="translate(139 84)" fill="#fff"/>
      </g>
      <g transform="translate(1037)">
        <circle id="Ellipse_55-34" data-name="Ellipse 55" cx="2" cy="2" r="2" transform="translate(139 84)" fill="#fff"/>
      </g>
      <g transform="translate(1121)">
        <circle id="Ellipse_55-35" data-name="Ellipse 55" cx="2" cy="2" r="2" transform="translate(139 84)" fill="#fff"/>
      </g>
      <g transform="translate(1205)">
        <circle id="Ellipse_55-36" data-name="Ellipse 55" cx="2" cy="2" r="2" transform="translate(139 84)" fill="#fff"/>
      </g>
      <g transform="translate(1289)">
        <circle id="Ellipse_55-37" data-name="Ellipse 55" cx="2" cy="2" r="2" transform="translate(139 84)" fill="#fff"/>
      </g>
      <g transform="translate(1373)">
        <circle id="Ellipse_55-38" data-name="Ellipse 55" cx="2" cy="2" r="2" transform="translate(139 84)" fill="#fff"/>
      </g>
      <g transform="translate(-139 84)">
        <circle id="Ellipse_55-39" data-name="Ellipse 55" cx="2" cy="2" r="2" transform="translate(139 84)" fill="#fff"/>
      </g>
      <g transform="translate(-55 84)">
        <circle id="Ellipse_55-40" data-name="Ellipse 55" cx="2" cy="2" r="2" transform="translate(139 84)" fill="#fff"/>
      </g>
      <g transform="translate(29 84)">
        <circle id="Ellipse_55-41" data-name="Ellipse 55" cx="2" cy="2" r="2" transform="translate(139 84)" fill="#fff"/>
      </g>
      <g transform="translate(113 84)">
        <circle id="Ellipse_55-42" data-name="Ellipse 55" cx="2" cy="2" r="2" transform="translate(139 84)" fill="#fff"/>
      </g>
      <g transform="translate(197 84)">
        <circle id="Ellipse_55-43" data-name="Ellipse 55" cx="2" cy="2" r="2" transform="translate(139 84)" fill="#fff"/>
      </g>
      <g transform="translate(281 84)">
        <circle id="Ellipse_55-44" data-name="Ellipse 55" cx="2" cy="2" r="2" transform="translate(139 84)" fill="#fff"/>
      </g>
      <g transform="translate(365 84)">
        <circle id="Ellipse_55-45" data-name="Ellipse 55" cx="2" cy="2" r="2" transform="translate(139 84)" fill="#fff"/>
      </g>
      <g transform="translate(449 84)">
        <circle id="Ellipse_55-46" data-name="Ellipse 55" cx="2" cy="2" r="2" transform="translate(139 84)" fill="#fff"/>
      </g>
      <g transform="translate(533 84)">
        <circle id="Ellipse_55-47" data-name="Ellipse 55" cx="2" cy="2" r="2" transform="translate(139 84)" fill="#fff"/>
      </g>
      <g transform="translate(617 84)">
        <circle id="Ellipse_55-48" data-name="Ellipse 55" cx="2" cy="2" r="2" transform="translate(139 84)" fill="#fff"/>
      </g>
      <g transform="translate(701 84)">
        <circle id="Ellipse_55-49" data-name="Ellipse 55" cx="2" cy="2" r="2" transform="translate(139 84)" fill="#fff"/>
      </g>
      <g transform="translate(785 84)">
        <circle id="Ellipse_55-50" data-name="Ellipse 55" cx="2" cy="2" r="2" transform="translate(139 84)" fill="#fff"/>
      </g>
      <g transform="translate(869 84)">
        <circle id="Ellipse_55-51" data-name="Ellipse 55" cx="2" cy="2" r="2" transform="translate(139 84)" fill="#fff"/>
      </g>
      <g transform="translate(953 84)">
        <circle id="Ellipse_55-52" data-name="Ellipse 55" cx="2" cy="2" r="2" transform="translate(139 84)" fill="#fff"/>
      </g>
      <g transform="translate(1037 84)">
        <circle id="Ellipse_55-53" data-name="Ellipse 55" cx="2" cy="2" r="2" transform="translate(139 84)" fill="#fff"/>
      </g>
      <g transform="translate(1121 84)">
        <circle id="Ellipse_55-54" data-name="Ellipse 55" cx="2" cy="2" r="2" transform="translate(139 84)" fill="#fff"/>
      </g>
      <g transform="translate(1205 84)">
        <circle id="Ellipse_55-55" data-name="Ellipse 55" cx="2" cy="2" r="2" transform="translate(139 84)" fill="#fff"/>
      </g>
      <g transform="translate(1289 84)">
        <circle id="Ellipse_55-56" data-name="Ellipse 55" cx="2" cy="2" r="2" transform="translate(139 84)" fill="#fff"/>
      </g>
      <g transform="translate(1373 84)">
        <circle id="Ellipse_55-57" data-name="Ellipse 55" cx="2" cy="2" r="2" transform="translate(139 84)" fill="#fff"/>
      </g>
      <g transform="translate(-139 168)">
        <circle id="Ellipse_55-58" data-name="Ellipse 55" cx="2" cy="2" r="2" transform="translate(139 84)" fill="#fff"/>
      </g>
      <g transform="translate(-55 168)">
        <circle id="Ellipse_55-59" data-name="Ellipse 55" cx="2" cy="2" r="2" transform="translate(139 84)" fill="#fff"/>
      </g>
      <g transform="translate(29 168)">
        <circle id="Ellipse_55-60" data-name="Ellipse 55" cx="2" cy="2" r="2" transform="translate(139 84)" fill="#fff"/>
      </g>
      <g transform="translate(113 168)">
        <circle id="Ellipse_55-61" data-name="Ellipse 55" cx="2" cy="2" r="2" transform="translate(139 84)" fill="#fff"/>
      </g>
      <g transform="translate(197 168)">
        <circle id="Ellipse_55-62" data-name="Ellipse 55" cx="2" cy="2" r="2" transform="translate(139 84)" fill="#fff"/>
      </g>
      <g transform="translate(281 168)">
        <circle id="Ellipse_55-63" data-name="Ellipse 55" cx="2" cy="2" r="2" transform="translate(139 84)" fill="#fff"/>
      </g>
      <g transform="translate(365 168)">
        <circle id="Ellipse_55-64" data-name="Ellipse 55" cx="2" cy="2" r="2" transform="translate(139 84)" fill="#fff"/>
      </g>
      <g transform="translate(449 168)">
        <circle id="Ellipse_55-65" data-name="Ellipse 55" cx="2" cy="2" r="2" transform="translate(139 84)" fill="#fff"/>
      </g>
      <g transform="translate(533 168)">
        <circle id="Ellipse_55-66" data-name="Ellipse 55" cx="2" cy="2" r="2" transform="translate(139 84)" fill="#fff"/>
      </g>
      <g transform="translate(617 168)">
        <circle id="Ellipse_55-67" data-name="Ellipse 55" cx="2" cy="2" r="2" transform="translate(139 84)" fill="#fff"/>
      </g>
      <g transform="translate(701 168)">
        <circle id="Ellipse_55-68" data-name="Ellipse 55" cx="2" cy="2" r="2" transform="translate(139 84)" fill="#fff"/>
      </g>
      <g transform="translate(785 168)">
        <circle id="Ellipse_55-69" data-name="Ellipse 55" cx="2" cy="2" r="2" transform="translate(139 84)" fill="#fff"/>
      </g>
      <g transform="translate(869 168)">
        <circle id="Ellipse_55-70" data-name="Ellipse 55" cx="2" cy="2" r="2" transform="translate(139 84)" fill="#fff"/>
      </g>
      <g transform="translate(953 168)">
        <circle id="Ellipse_55-71" data-name="Ellipse 55" cx="2" cy="2" r="2" transform="translate(139 84)" fill="#fff"/>
      </g>
      <g transform="translate(1037 168)">
        <circle id="Ellipse_55-72" data-name="Ellipse 55" cx="2" cy="2" r="2" transform="translate(139 84)" fill="#fff"/>
      </g>
      <g transform="translate(1121 168)">
        <circle id="Ellipse_55-73" data-name="Ellipse 55" cx="2" cy="2" r="2" transform="translate(139 84)" fill="#fff"/>
      </g>
      <g transform="translate(1205 168)">
        <circle id="Ellipse_55-74" data-name="Ellipse 55" cx="2" cy="2" r="2" transform="translate(139 84)" fill="#fff"/>
      </g>
      <g transform="translate(1289 168)">
        <circle id="Ellipse_55-75" data-name="Ellipse 55" cx="2" cy="2" r="2" transform="translate(139 84)" fill="#fff"/>
      </g>
      <g transform="translate(1373 168)">
        <circle id="Ellipse_55-76" data-name="Ellipse 55" cx="2" cy="2" r="2" transform="translate(139 84)" fill="#fff"/>
      </g>
      <g transform="translate(-139 252)">
        <circle id="Ellipse_55-77" data-name="Ellipse 55" cx="2" cy="2" r="2" transform="translate(139 84)" fill="#fff"/>
      </g>
      <g transform="translate(-55 252)">
        <circle id="Ellipse_55-78" data-name="Ellipse 55" cx="2" cy="2" r="2" transform="translate(139 84)" fill="#fff"/>
      </g>
      <g transform="translate(29 252)">
        <circle id="Ellipse_55-79" data-name="Ellipse 55" cx="2" cy="2" r="2" transform="translate(139 84)" fill="#fff"/>
      </g>
      <g transform="translate(113 252)">
        <circle id="Ellipse_55-80" data-name="Ellipse 55" cx="2" cy="2" r="2" transform="translate(139 84)" fill="#fff"/>
      </g>
      <g transform="translate(197 252)">
        <circle id="Ellipse_55-81" data-name="Ellipse 55" cx="2" cy="2" r="2" transform="translate(139 84)" fill="#fff"/>
      </g>
      <g transform="translate(281 252)">
        <circle id="Ellipse_55-82" data-name="Ellipse 55" cx="2" cy="2" r="2" transform="translate(139 84)" fill="#fff"/>
      </g>
      <g transform="translate(365 252)">
        <circle id="Ellipse_55-83" data-name="Ellipse 55" cx="2" cy="2" r="2" transform="translate(139 84)" fill="#fff"/>
      </g>
      <g transform="translate(449 252)">
        <circle id="Ellipse_55-84" data-name="Ellipse 55" cx="2" cy="2" r="2" transform="translate(139 84)" fill="#fff"/>
      </g>
      <g transform="translate(533 252)">
        <circle id="Ellipse_55-85" data-name="Ellipse 55" cx="2" cy="2" r="2" transform="translate(139 84)" fill="#fff"/>
      </g>
      <g transform="translate(617 252)">
        <circle id="Ellipse_55-86" data-name="Ellipse 55" cx="2" cy="2" r="2" transform="translate(139 84)" fill="#fff"/>
      </g>
      <g transform="translate(701 252)">
        <circle id="Ellipse_55-87" data-name="Ellipse 55" cx="2" cy="2" r="2" transform="translate(139 84)" fill="#fff"/>
      </g>
      <g transform="translate(785 252)">
        <circle id="Ellipse_55-88" data-name="Ellipse 55" cx="2" cy="2" r="2" transform="translate(139 84)" fill="#fff"/>
      </g>
      <g transform="translate(869 252)">
        <circle id="Ellipse_55-89" data-name="Ellipse 55" cx="2" cy="2" r="2" transform="translate(139 84)" fill="#fff"/>
      </g>
      <g transform="translate(953 252)">
        <circle id="Ellipse_55-90" data-name="Ellipse 55" cx="2" cy="2" r="2" transform="translate(139 84)" fill="#fff"/>
      </g>
      <g transform="translate(1037 252)">
        <circle id="Ellipse_55-91" data-name="Ellipse 55" cx="2" cy="2" r="2" transform="translate(139 84)" fill="#fff"/>
      </g>
      <g transform="translate(1121 252)">
        <circle id="Ellipse_55-92" data-name="Ellipse 55" cx="2" cy="2" r="2" transform="translate(139 84)" fill="#fff"/>
      </g>
      <g transform="translate(1205 252)">
        <circle id="Ellipse_55-93" data-name="Ellipse 55" cx="2" cy="2" r="2" transform="translate(139 84)" fill="#fff"/>
      </g>
      <g transform="translate(1289 252)">
        <circle id="Ellipse_55-94" data-name="Ellipse 55" cx="2" cy="2" r="2" transform="translate(139 84)" fill="#fff"/>
      </g>
      <g transform="translate(1373 252)">
        <circle id="Ellipse_55-95" data-name="Ellipse 55" cx="2" cy="2" r="2" transform="translate(139 84)" fill="#fff"/>
      </g>
      <g transform="translate(-139 336)">
        <circle id="Ellipse_55-96" data-name="Ellipse 55" cx="2" cy="2" r="2" transform="translate(139 84)" fill="#fff"/>
      </g>
      <g transform="translate(-55 336)">
        <circle id="Ellipse_55-97" data-name="Ellipse 55" cx="2" cy="2" r="2" transform="translate(139 84)" fill="#fff"/>
      </g>
      <g transform="translate(29 336)">
        <circle id="Ellipse_55-98" data-name="Ellipse 55" cx="2" cy="2" r="2" transform="translate(139 84)" fill="#fff"/>
      </g>
      <g transform="translate(113 336)">
        <circle id="Ellipse_55-99" data-name="Ellipse 55" cx="2" cy="2" r="2" transform="translate(139 84)" fill="#fff"/>
      </g>
      <g transform="translate(197 336)">
        <circle id="Ellipse_55-100" data-name="Ellipse 55" cx="2" cy="2" r="2" transform="translate(139 84)" fill="#fff"/>
      </g>
      <g transform="translate(281 336)">
        <circle id="Ellipse_55-101" data-name="Ellipse 55" cx="2" cy="2" r="2" transform="translate(139 84)" fill="#fff"/>
      </g>
      <g transform="translate(365 336)">
        <circle id="Ellipse_55-102" data-name="Ellipse 55" cx="2" cy="2" r="2" transform="translate(139 84)" fill="#fff"/>
      </g>
      <g transform="translate(449 336)">
        <circle id="Ellipse_55-103" data-name="Ellipse 55" cx="2" cy="2" r="2" transform="translate(139 84)" fill="#fff"/>
      </g>
      <g transform="translate(533 336)">
        <circle id="Ellipse_55-104" data-name="Ellipse 55" cx="2" cy="2" r="2" transform="translate(139 84)" fill="#fff"/>
      </g>
      <g transform="translate(617 336)">
        <circle id="Ellipse_55-105" data-name="Ellipse 55" cx="2" cy="2" r="2" transform="translate(139 84)" fill="#fff"/>
      </g>
      <g transform="translate(701 336)">
        <circle id="Ellipse_55-106" data-name="Ellipse 55" cx="2" cy="2" r="2" transform="translate(139 84)" fill="#fff"/>
      </g>
      <g transform="translate(785 336)">
        <circle id="Ellipse_55-107" data-name="Ellipse 55" cx="2" cy="2" r="2" transform="translate(139 84)" fill="#fff"/>
      </g>
      <g transform="translate(869 336)">
        <circle id="Ellipse_55-108" data-name="Ellipse 55" cx="2" cy="2" r="2" transform="translate(139 84)" fill="#fff"/>
      </g>
      <g transform="translate(953 336)">
        <circle id="Ellipse_55-109" data-name="Ellipse 55" cx="2" cy="2" r="2" transform="translate(139 84)" fill="#fff"/>
      </g>
      <g transform="translate(1037 336)">
        <circle id="Ellipse_55-110" data-name="Ellipse 55" cx="2" cy="2" r="2" transform="translate(139 84)" fill="#fff"/>
      </g>
      <g transform="translate(1121 336)">
        <circle id="Ellipse_55-111" data-name="Ellipse 55" cx="2" cy="2" r="2" transform="translate(139 84)" fill="#fff"/>
      </g>
      <g transform="translate(1205 336)">
        <circle id="Ellipse_55-112" data-name="Ellipse 55" cx="2" cy="2" r="2" transform="translate(139 84)" fill="#fff"/>
      </g>
      <g transform="translate(1289 336)">
        <circle id="Ellipse_55-113" data-name="Ellipse 55" cx="2" cy="2" r="2" transform="translate(139 84)" fill="#fff"/>
      </g>
      <g transform="translate(1373 336)">
        <circle id="Ellipse_55-114" data-name="Ellipse 55" cx="2" cy="2" r="2" transform="translate(139 84)" fill="#fff"/>
      </g>
      <g transform="translate(-139 420)">
        <circle id="Ellipse_55-115" data-name="Ellipse 55" cx="2" cy="2" r="2" transform="translate(139 84)" fill="#fff"/>
      </g>
      <g transform="translate(-55 420)">
        <circle id="Ellipse_55-116" data-name="Ellipse 55" cx="2" cy="2" r="2" transform="translate(139 84)" fill="#fff"/>
      </g>
      <g transform="translate(29 420)">
        <circle id="Ellipse_55-117" data-name="Ellipse 55" cx="2" cy="2" r="2" transform="translate(139 84)" fill="#fff"/>
      </g>
      <g transform="translate(113 420)">
        <circle id="Ellipse_55-118" data-name="Ellipse 55" cx="2" cy="2" r="2" transform="translate(139 84)" fill="#fff"/>
      </g>
      <g transform="translate(197 420)">
        <circle id="Ellipse_55-119" data-name="Ellipse 55" cx="2" cy="2" r="2" transform="translate(139 84)" fill="#fff"/>
      </g>
      <g transform="translate(281 420)">
        <circle id="Ellipse_55-120" data-name="Ellipse 55" cx="2" cy="2" r="2" transform="translate(139 84)" fill="#fff"/>
      </g>
      <g transform="translate(365 420)">
        <circle id="Ellipse_55-121" data-name="Ellipse 55" cx="2" cy="2" r="2" transform="translate(139 84)" fill="#fff"/>
      </g>
      <g transform="translate(449 420)">
        <circle id="Ellipse_55-122" data-name="Ellipse 55" cx="2" cy="2" r="2" transform="translate(139 84)" fill="#fff"/>
      </g>
      <g transform="translate(533 420)">
        <circle id="Ellipse_55-123" data-name="Ellipse 55" cx="2" cy="2" r="2" transform="translate(139 84)" fill="#fff"/>
      </g>
      <g transform="translate(617 420)">
        <circle id="Ellipse_55-124" data-name="Ellipse 55" cx="2" cy="2" r="2" transform="translate(139 84)" fill="#fff"/>
      </g>
      <g transform="translate(701 420)">
        <circle id="Ellipse_55-125" data-name="Ellipse 55" cx="2" cy="2" r="2" transform="translate(139 84)" fill="#fff"/>
      </g>
      <g transform="translate(785 420)">
        <circle id="Ellipse_55-126" data-name="Ellipse 55" cx="2" cy="2" r="2" transform="translate(139 84)" fill="#fff"/>
      </g>
      <g transform="translate(869 420)">
        <circle id="Ellipse_55-127" data-name="Ellipse 55" cx="2" cy="2" r="2" transform="translate(139 84)" fill="#fff"/>
      </g>
      <g transform="translate(953 420)">
        <circle id="Ellipse_55-128" data-name="Ellipse 55" cx="2" cy="2" r="2" transform="translate(139 84)" fill="#fff"/>
      </g>
      <g transform="translate(1037 420)">
        <circle id="Ellipse_55-129" data-name="Ellipse 55" cx="2" cy="2" r="2" transform="translate(139 84)" fill="#fff"/>
      </g>
      <g transform="translate(1121 420)">
        <circle id="Ellipse_55-130" data-name="Ellipse 55" cx="2" cy="2" r="2" transform="translate(139 84)" fill="#fff"/>
      </g>
      <g transform="translate(1205 420)">
        <circle id="Ellipse_55-131" data-name="Ellipse 55" cx="2" cy="2" r="2" transform="translate(139 84)" fill="#fff"/>
      </g>
      <g transform="translate(1289 420)">
        <circle id="Ellipse_55-132" data-name="Ellipse 55" cx="2" cy="2" r="2" transform="translate(139 84)" fill="#fff"/>
      </g>
      <g transform="translate(1373 420)">
        <circle id="Ellipse_55-133" data-name="Ellipse 55" cx="2" cy="2" r="2" transform="translate(139 84)" fill="#fff"/>
      </g>
      <g transform="translate(-139 504)">
        <circle id="Ellipse_55-134" data-name="Ellipse 55" cx="2" cy="2" r="2" transform="translate(139 84)" fill="#fff"/>
      </g>
      <g transform="translate(-55 504)">
        <circle id="Ellipse_55-135" data-name="Ellipse 55" cx="2" cy="2" r="2" transform="translate(139 84)" fill="#fff"/>
      </g>
      <g transform="translate(29 504)">
        <circle id="Ellipse_55-136" data-name="Ellipse 55" cx="2" cy="2" r="2" transform="translate(139 84)" fill="#fff"/>
      </g>
      <g transform="translate(113 504)">
        <circle id="Ellipse_55-137" data-name="Ellipse 55" cx="2" cy="2" r="2" transform="translate(139 84)" fill="#fff"/>
      </g>
      <g transform="translate(197 504)">
        <circle id="Ellipse_55-138" data-name="Ellipse 55" cx="2" cy="2" r="2" transform="translate(139 84)" fill="#fff"/>
      </g>
      <g transform="translate(281 504)">
        <circle id="Ellipse_55-139" data-name="Ellipse 55" cx="2" cy="2" r="2" transform="translate(139 84)" fill="#fff"/>
      </g>
      <g transform="translate(365 504)">
        <circle id="Ellipse_55-140" data-name="Ellipse 55" cx="2" cy="2" r="2" transform="translate(139 84)" fill="#fff"/>
      </g>
      <g transform="translate(449 504)">
        <circle id="Ellipse_55-141" data-name="Ellipse 55" cx="2" cy="2" r="2" transform="translate(139 84)" fill="#fff"/>
      </g>
      <g transform="translate(533 504)">
        <circle id="Ellipse_55-142" data-name="Ellipse 55" cx="2" cy="2" r="2" transform="translate(139 84)" fill="#fff"/>
      </g>
      <g transform="translate(617 504)">
        <circle id="Ellipse_55-143" data-name="Ellipse 55" cx="2" cy="2" r="2" transform="translate(139 84)" fill="#fff"/>
      </g>
      <g transform="translate(701 504)">
        <circle id="Ellipse_55-144" data-name="Ellipse 55" cx="2" cy="2" r="2" transform="translate(139 84)" fill="#fff"/>
      </g>
      <g transform="translate(785 504)">
        <circle id="Ellipse_55-145" data-name="Ellipse 55" cx="2" cy="2" r="2" transform="translate(139 84)" fill="#fff"/>
      </g>
      <g transform="translate(869 504)">
        <circle id="Ellipse_55-146" data-name="Ellipse 55" cx="2" cy="2" r="2" transform="translate(139 84)" fill="#fff"/>
      </g>
      <g transform="translate(953 504)">
        <circle id="Ellipse_55-147" data-name="Ellipse 55" cx="2" cy="2" r="2" transform="translate(139 84)" fill="#fff"/>
      </g>
      <g transform="translate(1037 504)">
        <circle id="Ellipse_55-148" data-name="Ellipse 55" cx="2" cy="2" r="2" transform="translate(139 84)" fill="#fff"/>
      </g>
      <g transform="translate(1121 504)">
        <circle id="Ellipse_55-149" data-name="Ellipse 55" cx="2" cy="2" r="2" transform="translate(139 84)" fill="#fff"/>
      </g>
      <g transform="translate(1205 504)">
        <circle id="Ellipse_55-150" data-name="Ellipse 55" cx="2" cy="2" r="2" transform="translate(139 84)" fill="#fff"/>
      </g>
      <g transform="translate(1289 504)">
        <circle id="Ellipse_55-151" data-name="Ellipse 55" cx="2" cy="2" r="2" transform="translate(139 84)" fill="#fff"/>
      </g>
      <g transform="translate(1373 504)">
        <circle id="Ellipse_55-152" data-name="Ellipse 55" cx="2" cy="2" r="2" transform="translate(139 84)" fill="#fff"/>
      </g>
      <g transform="translate(-139 588)">
        <circle id="Ellipse_55-153" data-name="Ellipse 55" cx="2" cy="2" r="2" transform="translate(139 84)" fill="#fff"/>
      </g>
      <g transform="translate(-55 588)">
        <circle id="Ellipse_55-154" data-name="Ellipse 55" cx="2" cy="2" r="2" transform="translate(139 84)" fill="#fff"/>
      </g>
      <g transform="translate(29 588)">
        <circle id="Ellipse_55-155" data-name="Ellipse 55" cx="2" cy="2" r="2" transform="translate(139 84)" fill="#fff"/>
      </g>
      <g transform="translate(113 588)">
        <circle id="Ellipse_55-156" data-name="Ellipse 55" cx="2" cy="2" r="2" transform="translate(139 84)" fill="#fff"/>
      </g>
      <g transform="translate(197 588)">
        <circle id="Ellipse_55-157" data-name="Ellipse 55" cx="2" cy="2" r="2" transform="translate(139 84)" fill="#fff"/>
      </g>
      <g transform="translate(281 588)">
        <circle id="Ellipse_55-158" data-name="Ellipse 55" cx="2" cy="2" r="2" transform="translate(139 84)" fill="#fff"/>
      </g>
      <g transform="translate(365 588)">
        <circle id="Ellipse_55-159" data-name="Ellipse 55" cx="2" cy="2" r="2" transform="translate(139 84)" fill="#fff"/>
      </g>
      <g transform="translate(449 588)">
        <circle id="Ellipse_55-160" data-name="Ellipse 55" cx="2" cy="2" r="2" transform="translate(139 84)" fill="#fff"/>
      </g>
      <g transform="translate(533 588)">
        <circle id="Ellipse_55-161" data-name="Ellipse 55" cx="2" cy="2" r="2" transform="translate(139 84)" fill="#fff"/>
      </g>
      <g transform="translate(617 588)">
        <circle id="Ellipse_55-162" data-name="Ellipse 55" cx="2" cy="2" r="2" transform="translate(139 84)" fill="#fff"/>
      </g>
      <g transform="translate(701 588)">
        <circle id="Ellipse_55-163" data-name="Ellipse 55" cx="2" cy="2" r="2" transform="translate(139 84)" fill="#fff"/>
      </g>
      <g transform="translate(785 588)">
        <circle id="Ellipse_55-164" data-name="Ellipse 55" cx="2" cy="2" r="2" transform="translate(139 84)" fill="#fff"/>
      </g>
      <g transform="translate(869 588)">
        <circle id="Ellipse_55-165" data-name="Ellipse 55" cx="2" cy="2" r="2" transform="translate(139 84)" fill="#fff"/>
      </g>
      <g transform="translate(953 588)">
        <circle id="Ellipse_55-166" data-name="Ellipse 55" cx="2" cy="2" r="2" transform="translate(139 84)" fill="#fff"/>
      </g>
      <g transform="translate(1037 588)">
        <circle id="Ellipse_55-167" data-name="Ellipse 55" cx="2" cy="2" r="2" transform="translate(139 84)" fill="#fff"/>
      </g>
      <g transform="translate(1121 588)">
        <circle id="Ellipse_55-168" data-name="Ellipse 55" cx="2" cy="2" r="2" transform="translate(139 84)" fill="#fff"/>
      </g>
      <g transform="translate(1205 588)">
        <circle id="Ellipse_55-169" data-name="Ellipse 55" cx="2" cy="2" r="2" transform="translate(139 84)" fill="#fff"/>
      </g>
      <g transform="translate(1289 588)">
        <circle id="Ellipse_55-170" data-name="Ellipse 55" cx="2" cy="2" r="2" transform="translate(139 84)" fill="#fff"/>
      </g>
      <g transform="translate(1373 588)">
        <circle id="Ellipse_55-171" data-name="Ellipse 55" cx="2" cy="2" r="2" transform="translate(139 84)" fill="#fff"/>
      </g>
    </g>
  </g>
</svg>
