<svg xmlns="http://www.w3.org/2000/svg" width="1265" height="3558" viewBox="0 0 1265 3558" fill="none">
  <path d="M453.923 5394L414.197 5331.14C382.097 5280.37 349.121 5228.22 316.611 5176.11C308.781 5183.68 299.092 5188.76 288.653 5190.78C273.969 5193.65 258.877 5190.33 247.246 5181.66C235.589 5172.98 227.429 5158.95 224.866 5143.17C222.305 5127.4 225.557 5111.26 233.787 5098.88C242.028 5086.49 255.243 5077.91 270.039 5075.37C279.87 5073.65 289.957 5074.74 299.259 5078.51C304.873 5059.25 310.961 5042.26 317.802 5026.73C366.887 4915.3 463.95 4832.69 571.114 4811.13C596.039 4806.11 621.205 4804.06 645.542 4802.08C678.825 4799.37 710.262 4796.81 740.067 4787.24C785.248 4772.75 830.988 4731.25 826.76 4682.89C822.056 4629.04 760.104 4596.61 700.793 4588.36C687.428 4586.5 673.913 4585.19 659.606 4583.8C604.099 4578.41 546.702 4572.85 500.37 4534.29C464.595 4504.53 443.404 4460.69 439.087 4407.5C433.278 4335.95 458.977 4256.92 506.149 4201.24C558.959 4138.91 628.318 4099.54 695.393 4061.46C720.853 4047.01 747.18 4032.07 771.828 4016.24C821.085 3984.62 935.311 3898.18 932.15 3778.8C929.976 3696.63 872.948 3625.69 819.667 3565.65L816.224 3561.78C759.02 3497.34 694.184 3424.31 680.076 3330.01C671.34 3271.61 692.911 3204.29 733.753 3162.5C765.576 3129.93 804.549 3116.74 843.492 3125.36C855.011 3127.9 865.896 3132.13 876.42 3136.22C892.103 3142.31 906.917 3148.07 919.958 3146.55C933.549 3144.98 947.006 3133.66 949.34 3121.85C950.692 3115 948.972 3106.5 944.619 3098.54C936.313 3083.35 921.36 3070.35 906.52 3065.42C884.781 3058.19 857.444 3060.92 829.542 3073.1C810.506 3081.41 792.553 3092.68 773.545 3104.61C755.489 3115.94 736.819 3127.66 716.665 3136.98C684.382 3151.92 649.003 3159.36 612.703 3159.36C570.882 3159.36 527.836 3149.49 486.838 3129.86C412.238 3094.14 351.95 3030.28 321.43 2954.65C261.555 2806.28 301.917 2616.73 419.582 2493.7C480.041 2430.49 557.629 2385.19 644.55 2360.62C659.173 2287.24 703.254 2224.83 761.164 2199.06C827.586 2169.49 897.584 2187.41 965.277 2204.74C1029.25 2221.12 1089.67 2236.59 1142.27 2211.79C1177.82 2195.03 1203.12 2159.82 1213.51 2112.65C1226.68 2052.86 1212.99 1985.59 1178.64 1941.27C1120.5 1866.26 1012.51 1828.95 889.763 1841.46C867.305 1843.75 840.237 1848.16 819.597 1861.53C830.585 1866.08 841.791 1872.45 850.593 1883.03C864.63 1899.91 868.851 1924.05 861.607 1946.03C854.453 1967.74 837.931 1982.88 817.41 1986.54C814.357 1987.09 811.266 1987.37 808.169 1987.37C783.693 1987.37 761.914 1969.87 752.246 1941.41C746.775 1925.14 745.349 1907.65 748.104 1890.63C669.833 1871.33 586.551 1874.73 505.671 1878.03C471.587 1879.42 436.343 1880.86 401.871 1880.6C243.899 1879.4 57.9187 1818.53 9.70343 1651.3C-18.8595 1552.24 12.2766 1399.19 148.135 1297.24C250.543 1220.38 377.493 1193.98 489.498 1170.69L830.743 1099.73C884.411 1088.58 939.904 1077.04 985.508 1046.49C1021.17 1022.6 1061.12 974.683 1056.35 918.263C1053.93 889.661 1041.36 865.055 1018.99 845.129C976.648 807.414 900.346 787.906 824.609 795.43C810.593 796.823 796.306 798.505 781.878 800.203C744.836 804.562 705.913 809.142 667.624 809.143C604.764 809.143 543.596 796.804 495.136 750.885C473.657 730.535 455.517 699.854 436.312 667.368C422.206 643.509 409.199 622.322 396.341 605.029C375.051 623.71 352.966 641.306 330.086 657.817C320.331 664.854 300.023 679.502 276.52 673.662C249.739 667.007 232.814 644.516 231.245 613.497C229.354 576.115 250.698 527.344 285.488 514.325C332.348 496.791 369.015 510.053 399.272 536.671C446.387 490.851 488.285 439.617 523.096 384.955C558.371 329.571 585.162 268.509 607.41 192.786C610.696 181.601 614.044 169.049 617.62 155.656C630.154 108.711 645.743 50.3591 671.407 2.06245C658.817 -27.0447 653.075 -57.1997 649.676 -79.9505C647.7 -93.1639 646.144 -106.465 644.594 -119.761C641.668 -144.844 638.904 -168.536 633.335 -191.523L678.295 -204.004C684.619 -177.896 687.702 -151.475 690.683 -125.924C692.168 -113.193 693.649 -100.458 695.542 -87.805C697.356 -75.6589 699.926 -61.0439 704.101 -45.9993C729.215 -74.0726 761.224 -92.3765 802.985 -92.2853C834.577 -92.216 862.283 -78.1297 877.099 -54.606C891.844 -31.1758 893.491 1.22943 881.4 29.9724C868.072 61.6548 839.969 85.2761 808.058 91.6216C770.779 99.0316 729.919 82.6552 700.692 49.4713C684.139 87.4432 672.415 131.355 662.278 169.319C658.582 183.165 655.114 196.139 651.717 207.702C628.065 288.21 599.389 353.433 561.475 412.962C524.907 470.39 480.962 524.22 431.607 572.391C447.908 594.008 462.24 618.253 475.559 640.782C492.951 670.199 509.379 697.984 525.921 713.658C588.492 772.945 684.222 761.681 776.803 750.785C791.494 749.053 806.043 747.344 820.316 745.927C889.865 739.017 986.384 751.411 1048.7 806.913C1080.45 835.188 1099.09 872.146 1102.61 913.784C1108.1 978.702 1071.8 1047.34 1010.15 1088.64C957.228 1124.09 894.735 1137.08 839.598 1148.54L498.353 1219.5C390.9 1241.85 269.109 1267.18 174.797 1337.96C90.2952 1401.37 21.6981 1524.33 54.0839 1636.65C80.8474 1729.47 186.352 1829.24 402.2 1830.88C435.622 1831.14 470.333 1829.72 503.901 1828.35C590.964 1824.8 680.684 1821.13 767.49 1844.48C770.174 1840.93 773.096 1837.59 776.233 1834.48C807.574 1803.46 851.019 1795.47 885.366 1791.97C1025.49 1777.69 1145.41 1820.54 1214.38 1909.53C1258.38 1966.29 1275.37 2048.49 1258.72 2124.06C1244.9 2186.78 1210.19 2234.09 1160.99 2257.29C1094.08 2288.84 1023.11 2270.67 954.475 2253.1C891.22 2236.91 831.473 2221.61 778.996 2244.97C740.713 2262.01 710.297 2300.99 695.525 2348.8C743.156 2340.08 792.98 2337.29 843.833 2340.84C922.723 2346.35 1032.45 2370.61 1107.17 2454.92C1192.04 2550.67 1187.79 2682.44 1134.65 2754.51C1097.96 2804.25 1037.24 2831.57 973.335 2831.58C942.759 2831.56 912.468 2825.37 884.097 2813.32C812.119 2782.75 749.805 2719.15 698.883 2624.29C659.066 2550.13 639.049 2479.65 639.273 2414.54C566.743 2438.02 501.915 2477.12 452.037 2529.27C347.827 2638.23 311.653 2805.05 364.069 2934.93C390.033 2999.27 441.693 3053.78 505.802 3084.48C570.537 3115.48 640.676 3117.98 698.233 3091.35C715.777 3083.23 732.426 3072.78 750.052 3061.72C769.636 3049.43 789.887 3036.72 812.004 3027.07C849.843 3010.55 888.298 3007.31 920.286 3017.94C946.363 3026.6 970.445 3047.34 984.703 3073.43C994.967 3092.2 998.547 3113.05 994.781 3132.14C988.245 3165.2 958.88 3192.05 924.958 3195.98C921.842 3196.34 918.709 3196.52 915.575 3196.52C895.492 3196.52 877.082 3189.37 860.576 3182.96C851.19 3179.31 842.326 3175.87 834.092 3174.05C803.909 3167.37 780.32 3183.62 765.847 3198.44C736.018 3228.96 719.606 3279.83 725.937 3322.15C737.768 3401.23 794.767 3465.44 849.889 3527.52L853.339 3531.41C912.548 3598.13 975.938 3677.66 978.576 3777.4C981.293 3879.93 914.644 3982.53 795.718 4058.88C770.021 4075.38 743.145 4090.64 717.153 4105.39C650.684 4143.12 587.901 4178.76 540.553 4234.64C502.371 4279.71 480.706 4345.87 485.36 4403.2C487.569 4430.42 496.913 4468.45 528.875 4495.05C564.455 4524.66 612.708 4529.34 663.794 4534.29C677.916 4535.66 692.519 4537.07 706.78 4539.06C778.725 4549.07 865.428 4591.53 873.004 4678.27C879.604 4753.77 817.832 4814.21 753.4 4834.88C718.789 4845.98 683.345 4848.87 649.067 4851.66C624.919 4853.63 602.111 4855.49 579.693 4860C486.909 4878.67 402.656 4950.68 359.809 5047.94C353.205 5062.93 347.344 5079.73 341.887 5099.31C340.461 5104.42 339.581 5111.03 338.65 5118.03C338.512 5119.07 338.371 5120.12 338.229 5121.18C376.097 5182.19 414.981 5243.69 452.655 5303.27L492.022 5365.57L453.923 5394ZM279.295 5124.29C278.663 5124.29 278.031 5124.35 277.407 5124.45C274.889 5124.89 272.674 5126.14 271.626 5127.71C270.57 5129.3 270.188 5131.96 270.625 5134.65C271.062 5137.35 272.27 5139.73 273.772 5140.85C275.273 5141.97 277.783 5142.36 280.307 5141.87C282.845 5141.37 285.072 5140.05 286.117 5138.42C287.358 5136.35 288.313 5134.1 288.954 5131.75C287.195 5129.14 285.457 5126.89 283.817 5125.6C282.474 5124.68 280.894 5124.22 279.296 5124.29L279.295 5124.29ZM686.088 2401.81C682.856 2461.39 700.709 2527.91 739.153 2599.51C784.717 2684.39 839.246 2740.77 901.228 2767.1C972.838 2797.52 1057.51 2778.86 1098.19 2723.7C1149.58 2654.01 1125.37 2547.68 1073.48 2489.14C1009.1 2416.5 911.418 2395.38 840.806 2390.44C788.985 2386.77 736.931 2390.6 686.088 2401.81ZM793.312 1904.39C792.871 1911.18 793.751 1918 795.899 1924.42C796.407 1925.92 801.128 1939.04 809.778 1937.5C814.945 1936.58 817.115 1931.59 817.807 1929.49C819.074 1925.64 819.238 1920.1 815.898 1916.09C811.716 1911.05 802.419 1907.48 793.312 1904.39ZM325.23 556.508C317.52 556.508 309.429 558.039 300.817 561.262C290.039 565.295 276.6 590.53 277.626 610.811C278.246 623.052 283.528 624.365 287.025 625.234C288.446 625.588 292.564 624.934 304.139 616.585C324.401 601.976 344.038 586.43 363.049 569.944C351.199 561.272 338.818 556.508 325.23 556.508ZM725.653 3.77179C726.551 5.12648 727.475 6.46213 728.426 7.77872C743.884 29.148 771.879 48.2463 799.578 42.7419C816.49 39.3798 831.984 26.3551 839.049 9.56136C844.424 -3.21333 844.236 -17.8325 838.584 -26.8144C831.298 -38.3814 815.367 -42.5344 802.89 -42.5615C770.229 -42.6273 745.306 -24.1329 725.653 3.77179Z" fill="url(#paint0_linear_10_387)"/>
  <defs>
    <linearGradient id="paint0_linear_10_387" x1="172.04" y1="2595" x2="958.871" y2="2595" gradientUnits="userSpaceOnUse">
      <stop stop-color="#00D1DE" stop-opacity="0.2"/>
      <stop offset="0.5" stop-color="#07DCC2" stop-opacity="0.2"/>
      <stop offset="1" stop-color="#00E5F3" stop-opacity="0.3"/>
    </linearGradient>
  </defs>
</svg>